{"title":"The.Other.Son.2012.LIMITED.BDRip.XviD-IGUANA","uid":8390759,"size":1484744755,"categoryP":"video","categoryS":"movies","magnet":"?xt=urn:btih:8aa498b1755128d758a7cdb0dec704c268b9d4ea&amp;dn=The.Other.Son.2012.LIMITED.BDRip.XviD-IGUANA&amp;tr=udp%3A%2F%2Ftracker.openbittorrent.com%3A80&amp;tr=udp%3A%2F%2Fopen.demonii.com%3A1337&amp;tr=udp%3A%2F%2Ftracker.coppersurfer.tk%3A6969&amp;tr=udp%3A%2F%2Fexodus.desync.com%3A6969","seeders":5,"leechers":2,"uploader":"R0thschild","files":8,"time":1366423573,"description":"--------------------------------------------\n &lt;a href=&quot;\nhttp://www.imdb.com/title/tt2073016/?ref_=fn_al_tt_1&quot; rel=&quot;nofollow&quot; target=&quot;_NEW&quot;&gt;\nhttp://www.imdb.com/title/tt2073016/?ref_=fn_al_tt_1&lt;/a&gt;\n\n105 min  -  Drama  -  4 April 2012 (France)\n7,1 Your rating:    -/10   Ratings: 7,1/10 from 607 users   Metascore: 63/100 \n\nSUBTiTLES.......: Bulgarian\n\nLanguage : French\n\nScreens: &lt;a href=&quot;\nhttp://imgsure.com/?p=911395&quot; rel=&quot;nofollow&quot; target=&quot;_NEW&quot;&gt;\nhttp://imgsure.com/?p=911395&lt;/a&gt; &lt;a href=&quot;\nhttp://imgsure.com/?p=384322&quot; rel=&quot;nofollow&quot; target=&quot;_NEW&quot;&gt;\nhttp://imgsure.com/?p=384322&lt;/a&gt;\n\nFormat                           : AVI\nFormat/Info                      : Audio Video Interleave\nFile size                        : 701 MiB\nOverall bit rate                 : 1 819 Kbps\nWriting application              : VirtualDubMod 1.5.10.2 (build 2540/release)\nWriting library                  : VirtualDubMod build 2540/release\n\nVideo\nID                               : 0\nFormat                           : MPEG-4 Visual\nFormat profile                   : Advanced Simple@L5\nFormat settings, BVOP            : 2\nFormat settings, QPel            : No\nFormat settings, GMC             : No warppoints\nFormat settings, Matrix          : Default (H.263)\nMuxing mode                      : Packed bitstream\nCodec ID                         : XVID\nCodec ID/Hint                    : XviD\nBit rate                         : 1 362 Kbps\nWidth                            : 640 pixels\nHeight                           : 272 pixels\nDisplay aspect ratio             : 2.35:1\nFrame rate                       : 23.976 fps\nColor space                      : YUV\nChroma subsampling               : 4:2:0\nBit depth                        : 8 bits\nScan type                        : Progressive\nCompression mode                 : Lossy\nBits/(Pixel*Frame)               : 0.326\nStream size                      : 524 MiB (75%)\nWriting library                  : XviD 64\n\nAudio\nID                               : 1\nFormat                           : AC-3\nFormat/Info                      : Audio Coding 3\nMode extension                   : CM (complete main)\nCodec ID                         : 2000\nBit rate mode                    : Constant\nBit rate                         : 448 Kbps\nChannel(s)                       : 6 channels\nChannel positions                : Front: L C R, Side: L R, LFE\nSampling rate                    : 48.0 KHz\nBit depth                        : 16 bits\nCompression mode                 : Lossy\nStream size                      : 172 MiB (25%)\nAlignment                        : Split accross interleaves\nInterleave, duration             : 42 ms (1.00 video frame)\nInterleave, preload duration     : 500 ms\n\n--------------------------------------------\n\nMore at   &lt;a href=&quot;\nhttp://publichash.com/&quot; rel=&quot;nofollow&quot; target=&quot;_NEW&quot;&gt;\nhttp://publichash.com/&lt;/a&gt;\n\n--------------------------------------------\t","torrent":{"xt":"urn:btih:8aa498b1755128d758a7cdb0dec704c268b9d4ea","amp;dn":"The.Other.Son.2012.LIMITED.BDRip.XviD-IGUANA","amp;tr":["udp%3A%2F%2Ftracker.openbittorrent.com%3A80","udp%3A%2F%2Fopen.demonii.com%3A1337","udp%3A%2F%2Ftracker.coppersurfer.tk%3A6969","udp%3A%2F%2Fexodus.desync.com%3A6969"],"infoHash":"8aa498b1755128d758a7cdb0dec704c268b9d4ea","infoHashBuffer":{"type":"Buffer","data":[138,164,152,177,117,81,40,215,88,167,205,176,222,199,4,194,104,185,212,234]},"announce":[],"urlList":[]}}